<svg width="32" height="32" viewBox="0 0 32 32" fill="none" xmlns="http://www.w3.org/2000/svg">
<g id="chat">
<path id="Vector" d="M3.99996 16.0001C4.00047 13.3582 4.87281 10.7903 6.48166 8.69478C8.0905 6.59924 10.3459 5.0932 12.898 4.41029C15.4502 3.72737 18.1563 3.90576 20.5967 4.91777C23.0371 5.92979 25.0753 7.71886 26.3952 10.0075C27.715 12.296 28.2427 14.9562 27.8964 17.5753C27.5501 20.1945 26.3492 22.6261 24.4799 24.493C22.6106 26.36 20.1775 27.5579 17.558 27.9009C14.9384 28.2439 12.2789 27.7128 9.99196 26.3901L5.31596 27.9501C5.1432 28.0078 4.95798 28.0172 4.78027 27.9773C4.60256 27.9374 4.43912 27.8498 4.30758 27.7238C4.17605 27.5978 4.08142 27.4383 4.0339 27.2625C3.98638 27.0867 3.98779 26.9012 4.03796 26.7261L5.46196 21.7441C4.502 19.9818 3.99933 18.0069 3.99996 16.0001ZM16 6.00013C14.2343 6.00002 12.5001 6.46739 10.9737 7.35474C9.44721 8.24209 8.1829 9.51778 7.30926 11.0521C6.43562 12.5865 5.98381 14.3248 5.99974 16.0904C6.01567 17.8559 6.49878 19.5858 7.39996 21.1041C7.46929 21.2214 7.51393 21.3516 7.53113 21.4868C7.54832 21.622 7.53772 21.7592 7.49996 21.8901L6.48196 25.4501L9.79796 24.3461C9.93879 24.2991 10.0883 24.2841 10.2357 24.3021C10.3831 24.3201 10.5246 24.3706 10.65 24.4501C11.9605 25.2795 13.446 25.7927 14.989 25.9491C16.532 26.1056 18.0903 25.9009 19.5406 25.3514C20.991 24.8019 22.2936 23.9226 23.3456 22.783C24.3976 21.6434 25.17 20.2747 25.602 18.7851C26.0339 17.2956 26.1135 15.7259 25.8343 14.2003C25.5552 12.6747 24.925 11.2349 23.9936 9.99482C23.0623 8.75469 21.8552 7.74819 20.4678 7.05489C19.0805 6.36159 17.5509 6.00049 16 6.00013Z" fill="#3D85FF"/>
</g>
</svg>
