<svg width="32" height="32" viewBox="0 0 32 32" fill="none" xmlns="http://www.w3.org/2000/svg">
<g id="Noti">
<path id="Vector" d="M15.9999 4C13.613 4 11.3238 4.94821 9.63598 6.63604C7.94816 8.32387 6.99995 10.6131 6.99995 13V17.802L5.07195 22.63C5.01156 22.7816 4.9892 22.9457 5.00682 23.108C5.02444 23.2702 5.08151 23.4257 5.17304 23.5608C5.26457 23.6959 5.38778 23.8066 5.53192 23.8832C5.67606 23.9597 5.83674 23.9998 5.99995 24H11.9999C11.9999 26.216 13.7839 28 15.9999 28C18.2159 28 19.9999 26.216 19.9999 24H25.9999C26.1632 23.9998 26.3238 23.9597 26.468 23.8832C26.6121 23.8066 26.7353 23.6959 26.8269 23.5608C26.9184 23.4257 26.9754 23.2702 26.9931 23.108C27.0107 22.9457 26.9883 22.7816 26.9279 22.63L24.9999 17.8V13C24.9999 10.6131 24.0517 8.32387 22.3639 6.63604C20.6761 4.94821 18.3869 4 15.9999 4ZM17.9999 24C17.9999 25.112 17.1119 26 15.9999 26C14.8879 26 13.9999 25.112 13.9999 24H17.9999ZM8.99995 13C8.99995 11.1435 9.73744 9.36301 11.0502 8.05025C12.363 6.7375 14.1434 6 15.9999 6C17.8565 6 19.6369 6.7375 20.9497 8.05025C22.2624 9.36301 22.9999 11.1435 22.9999 13V17.996C23.0003 18.1228 23.0247 18.2483 23.0719 18.366L24.5239 22H7.47594L8.92795 18.366C8.97518 18.2483 8.99962 18.1228 8.99995 17.996V13Z" fill="#3D85FF"/>
</g>
</svg>
