<svg width="20" height="20" viewBox="0 0 20 20" fill="none" xmlns="http://www.w3.org/2000/svg">
<g id="link">
<path id="Vector" d="M10.0001 4.3428C10.738 3.60488 11.735 3.18455 12.7785 3.17149C13.822 3.15844 14.8293 3.55369 15.5854 4.2729C16.3415 4.99213 16.7866 5.97836 16.8258 7.02118C16.8649 8.06401 16.4949 9.08083 15.7948 9.8547L15.657 9.99965L14.2427 11.4139C14.1083 11.5482 13.9279 11.6265 13.738 11.6329C13.5481 11.6394 13.3628 11.5735 13.2196 11.4486C13.0764 11.3237 12.9859 11.1491 12.9665 10.9601C12.9471 10.7711 13.0001 10.5817 13.1149 10.4303L13.1821 10.3532L14.5963 8.93899C15.0569 8.48057 15.321 7.86078 15.3324 7.211C15.3439 6.56121 15.1019 5.9325 14.6577 5.45812C14.2134 4.98375 13.602 4.701 12.9528 4.66981C12.3037 4.63862 11.6679 4.86143 11.1803 5.29103L11.0608 5.40346L9.64654 6.81767C9.51214 6.952 9.33175 7.0303 9.14184 7.03675C8.95192 7.0432 8.76664 6.97732 8.62343 6.85242C8.48021 6.72753 8.38975 6.55293 8.37031 6.3639C8.35087 6.17487 8.40391 5.98551 8.51871 5.83409L8.58588 5.75701L10.0001 4.3428ZM5.75746 8.58544C5.89186 8.45111 6.07225 8.37281 6.26216 8.36636C6.45208 8.35991 6.63736 8.42579 6.78057 8.55069C6.92379 8.67558 7.01425 8.85018 7.03369 9.03921C7.05313 9.22824 7.00009 9.4176 6.88529 9.56902L6.81812 9.6461L5.4039 11.0603C4.94325 11.5187 4.67921 12.1385 4.66775 12.7883C4.6563 13.4381 4.89833 14.0668 5.34254 14.5412C5.78675 15.0156 6.39823 15.2983 7.04737 15.3295C7.69651 15.3607 8.33229 15.1379 8.81994 14.7083L8.93944 14.5958L10.3537 13.1816C10.4881 13.0473 10.6684 12.969 10.8584 12.9626C11.0483 12.9561 11.2336 13.022 11.3768 13.1469C11.52 13.2718 11.6104 13.4464 11.6299 13.6354C11.6493 13.8244 11.5963 14.0138 11.4815 14.1652L11.4143 14.2423L10.0001 15.6565C9.2622 16.3944 8.26515 16.8148 7.22168 16.8278C6.1782 16.8409 5.17094 16.4456 4.41482 15.7264C3.65869 15.0072 3.21357 14.0209 3.17444 12.9781C3.13531 11.9353 3.50526 10.9185 4.20536 10.1446L4.34324 9.99965L5.75746 8.58544ZM6.81812 12.121L12.1214 6.81767C12.2558 6.68335 12.4362 6.60505 12.6261 6.5986C12.816 6.59215 13.0013 6.65802 13.1445 6.78292C13.2877 6.90782 13.3782 7.08242 13.3977 7.27144C13.4171 7.46047 13.3641 7.64983 13.2493 7.80126L13.1821 7.87833L7.87878 13.1816C7.74437 13.316 7.56398 13.3943 7.37407 13.4007C7.18416 13.4072 6.99887 13.3413 6.85566 13.2164C6.71245 13.0915 6.62198 12.9169 6.60254 12.7279C6.58311 12.5388 6.63614 12.3495 6.75094 12.198L6.81812 12.121Z" fill="#0051FF"/>
</g>
</svg>
