<svg width="12" height="12" viewBox="0 0 12 12" fill="none" xmlns="http://www.w3.org/2000/svg">
<g id="arrow_up">
<path id="Vector" d="M9.74118 8.12907C9.78412 8.1677 9.83463 8.1979 9.88982 8.21794C9.94502 8.23799 10.0038 8.24749 10.0629 8.2459C10.1219 8.24431 10.1801 8.23166 10.234 8.20867C10.2879 8.18569 10.3365 8.15282 10.3771 8.11194C10.4177 8.07106 10.4494 8.02298 10.4705 7.97043C10.4915 7.91788 10.5015 7.8619 10.4998 7.80568C10.4981 7.74946 10.4849 7.6941 10.4607 7.64277C10.4366 7.59144 10.4021 7.54514 10.3591 7.50651L6.3115 3.86704C6.22799 3.79188 6.11744 3.75 6.00253 3.75C5.88761 3.75 5.77706 3.79188 5.69356 3.86704L1.64548 7.50651C1.60161 7.54488 1.56618 7.59117 1.54125 7.64269C1.51632 7.69421 1.5024 7.74994 1.50028 7.80662C1.49817 7.86331 1.50791 7.91983 1.52893 7.97291C1.54995 8.02598 1.58184 8.07455 1.62275 8.1158C1.66365 8.15704 1.71276 8.19013 1.76721 8.21315C1.82166 8.23617 1.88038 8.24866 1.93994 8.2499C1.99951 8.25113 2.05874 8.24109 2.11419 8.22035C2.16965 8.1996 2.22022 8.16858 2.26297 8.12907L6.00253 4.76706L9.74118 8.12907Z" fill="#0051FF"/>
</g>
</svg>
