<svg width="6" height="12" viewBox="0 0 6 12" fill="none" xmlns="http://www.w3.org/2000/svg">
<path id="Vector" d="M0.516085 1.63529C0.471018 1.58519 0.435785 1.52627 0.4124 1.46187C0.389014 1.39748 0.377932 1.32888 0.379787 1.25998C0.381643 1.19109 0.396399 1.12325 0.423213 1.06035C0.450028 0.997448 0.488375 0.940708 0.536066 0.893372C0.583757 0.846035 0.639858 0.809028 0.701166 0.784465C0.762473 0.759901 0.827786 0.748261 0.893376 0.75021C0.958966 0.752159 1.02355 0.767658 1.08344 0.795823C1.14332 0.823988 1.19734 0.864266 1.24241 0.914359L5.48846 5.63659C5.57614 5.73401 5.625 5.86299 5.625 5.99705C5.625 6.13112 5.57614 6.2601 5.48846 6.35751L1.24241 11.0803C1.19764 11.1315 1.14363 11.1728 1.08352 11.2019C1.02342 11.231 0.958408 11.2472 0.892272 11.2497C0.826136 11.2521 0.760193 11.2408 0.698272 11.2163C0.636351 11.1917 0.579687 11.1545 0.531572 11.1068C0.483456 11.0591 0.444848 11.0018 0.41799 10.9383C0.391132 10.8747 0.376559 10.8062 0.375118 10.7367C0.373677 10.6672 0.385397 10.5981 0.409596 10.5334C0.433796 10.4687 0.469993 10.4097 0.516085 10.3599L4.43843 5.99705L0.516085 1.63529Z" fill="#4F5462"/>
</svg>
