<svg width="16" height="16" viewBox="0 0 16 16" fill="none" xmlns="http://www.w3.org/2000/svg">
<g id="location">
<path id="Vector" d="M7.9999 1.28613C9.47753 1.28613 10.8946 1.87312 11.9395 2.91797C12.9843 3.96281 13.5713 5.37993 13.5713 6.85756C13.5713 9.21185 11.917 11.7776 8.65132 14.5821C8.46974 14.7381 8.23822 14.8238 7.99883 14.8236C7.75944 14.8234 7.52807 14.7373 7.34675 14.581L7.13075 14.3936C4.00961 11.6621 2.42847 9.15928 2.42847 6.85756C2.42847 5.37993 3.01546 3.96281 4.0603 2.91797C5.10515 1.87312 6.52226 1.28613 7.9999 1.28613ZM7.9999 2.14328C6.74959 2.14328 5.55049 2.63996 4.66639 3.52406C3.78229 4.40816 3.28561 5.60725 3.28561 6.85756C3.28561 8.8587 4.74161 11.1644 7.69361 13.7473L7.90675 13.9318C7.93267 13.9541 7.96572 13.9664 7.9999 13.9664C8.03408 13.9664 8.06712 13.9541 8.09304 13.9318C11.1879 11.2736 12.7142 8.90613 12.7142 6.85756C12.7142 6.23847 12.5922 5.62545 12.3553 5.05348C12.1184 4.48152 11.7712 3.96182 11.3334 3.52406C10.8956 3.0863 10.3759 2.73904 9.80398 2.50213C9.23201 2.26521 8.61898 2.14328 7.9999 2.14328ZM7.9999 4.7147C8.56822 4.7147 9.11326 4.94047 9.51513 5.34233C9.91699 5.7442 10.1428 6.28924 10.1428 6.85756C10.1428 7.42588 9.91699 7.97093 9.51513 8.37279C9.11326 8.77465 8.56822 9.00042 7.9999 9.00042C7.43157 9.00042 6.88653 8.77465 6.48467 8.37279C6.0828 7.97093 5.85704 7.42588 5.85704 6.85756C5.85704 6.28924 6.0828 5.7442 6.48467 5.34233C6.88653 4.94047 7.43157 4.7147 7.9999 4.7147ZM7.9999 5.57185C7.6589 5.57185 7.33188 5.70731 7.09076 5.94842C6.84964 6.18954 6.71418 6.51657 6.71418 6.85756C6.71418 7.19855 6.84964 7.52558 7.09076 7.7667C7.33188 8.00782 7.6589 8.14328 7.9999 8.14328C8.34089 8.14328 8.66791 8.00782 8.90903 7.7667C9.15015 7.52558 9.28561 7.19855 9.28561 6.85756C9.28561 6.51657 9.15015 6.18954 8.90903 5.94842C8.66791 5.70731 8.34089 5.57185 7.9999 5.57185Z" fill="#0F62FE"/>
</g>
</svg>
