<svg width="16" height="16" viewBox="0 0 16 16" fill="none" xmlns="http://www.w3.org/2000/svg">
<g id="swap">
<path id="Vector" d="M10.3539 1.64663C10.26 1.55274 10.1327 1.5 9.99992 1.5C9.86714 1.5 9.7398 1.55274 9.64592 1.64663C9.55203 1.74052 9.49929 1.86786 9.49929 2.00063C9.49929 2.13341 9.55203 2.26075 9.64592 2.35463L11.2929 4.00063H3.49992C3.36731 4.00063 3.24013 4.05331 3.14636 4.14708C3.0526 4.24085 2.99992 4.36802 2.99992 4.50063C2.99992 4.63324 3.0526 4.76042 3.14636 4.85418C3.24013 4.94795 3.36731 5.00063 3.49992 5.00063H11.2929L9.64592 6.64663C9.59943 6.69312 9.56255 6.74831 9.53739 6.80905C9.51223 6.86979 9.49929 6.93489 9.49929 7.00063C9.49929 7.06638 9.51223 7.13148 9.53739 7.19221C9.56255 7.25295 9.59943 7.30814 9.64592 7.35463C9.6924 7.40112 9.74759 7.438 9.80833 7.46315C9.86907 7.48831 9.93417 7.50126 9.99992 7.50126C10.0657 7.50126 10.1308 7.48831 10.1915 7.46315C10.2522 7.438 10.3074 7.40112 10.3539 7.35463L12.8539 4.85463C12.9005 4.80819 12.9374 4.75301 12.9626 4.69227C12.9878 4.63152 13.0008 4.5664 13.0008 4.50063C13.0008 4.43486 12.9878 4.36974 12.9626 4.309C12.9374 4.24825 12.9005 4.19308 12.8539 4.14663L10.3539 1.64663ZM6.35392 9.35463C6.40041 9.30814 6.43728 9.25295 6.46244 9.19221C6.4876 9.13148 6.50055 9.06638 6.50055 9.00063C6.50055 8.93489 6.4876 8.86979 6.46244 8.80905C6.43728 8.74831 6.40041 8.69312 6.35392 8.64663C6.30743 8.60014 6.25224 8.56327 6.1915 8.53811C6.13076 8.51295 6.06566 8.5 5.99992 8.5C5.93417 8.5 5.86907 8.51295 5.80833 8.53811C5.74759 8.56327 5.69241 8.60014 5.64592 8.64663L3.14592 11.1466C3.09935 11.1931 3.06241 11.2483 3.0372 11.309C3.012 11.3697 2.99902 11.4349 2.99902 11.5006C2.99902 11.5664 3.012 11.6315 3.0372 11.6923C3.06241 11.753 3.09935 11.8082 3.14592 11.8546L5.64592 14.3546C5.7398 14.4485 5.86714 14.5013 5.99992 14.5013C6.13269 14.5013 6.26003 14.4485 6.35392 14.3546C6.4478 14.2607 6.50055 14.1334 6.50055 14.0006C6.50055 13.8679 6.4478 13.7405 6.35392 13.6466L4.70692 12.0006H12.4999C12.6325 12.0006 12.7597 11.948 12.8535 11.8542C12.9472 11.7604 12.9999 11.6332 12.9999 11.5006C12.9999 11.368 12.9472 11.2408 12.8535 11.1471C12.7597 11.0533 12.6325 11.0006 12.4999 11.0006H4.70692L6.35392 9.35463Z" fill="#FCFCFF"/>
</g>
</svg>
