<svg width="16" height="16" viewBox="0 0 16 16" fill="none" xmlns="http://www.w3.org/2000/svg">
<g id="download">
<path id="Vector" d="M12.5001 13H3.50006C3.37511 12.9998 3.25461 13.0463 3.16227 13.1305C3.06994 13.2147 3.01247 13.3304 3.00118 13.4548C2.98989 13.5793 3.0256 13.7034 3.10128 13.8028C3.17695 13.9023 3.28711 13.9697 3.41006 13.992L3.50006 14H12.5001C12.625 14.0002 12.7455 13.9537 12.8378 13.8695C12.9302 13.7853 12.9876 13.6696 12.9989 13.5452C13.0102 13.4207 12.9745 13.2966 12.8988 13.1972C12.8232 13.0977 12.713 13.0303 12.5901 13.008L12.5001 13ZM8.09005 1.008L8.00005 1C7.88303 0.999961 7.7697 1.04097 7.6798 1.11589C7.58989 1.19081 7.52912 1.29489 7.50806 1.41L7.50005 1.5V10.292L4.81806 7.611C4.73532 7.52817 4.62615 7.477 4.50956 7.4664C4.39298 7.4558 4.27637 7.48645 4.18006 7.553L4.11005 7.611C4.02738 7.69386 3.97639 7.80309 3.96598 7.91967C3.95556 8.03626 3.98638 8.1528 4.05306 8.249L4.11106 8.318L7.64605 11.854C7.72891 11.9367 7.83814 11.9877 7.95473 11.9981C8.07131 12.0085 8.18786 11.9777 8.28405 11.911L8.35405 11.854L11.8891 8.318C11.9776 8.22981 12.03 8.11164 12.0358 7.98678C12.0415 7.86191 12.0003 7.73941 11.9203 7.64342C11.8402 7.54742 11.7271 7.4849 11.6032 7.46816C11.4794 7.45142 11.3537 7.48169 11.2511 7.553L11.1821 7.611L8.50005 10.292V1.5C8.50009 1.38297 8.45908 1.26964 8.38417 1.17974C8.30925 1.08984 8.20517 1.02906 8.09005 1.008Z" fill="#FCFCFF"/>
</g>
</svg>
