<svg width="16" height="16" viewBox="0 0 16 16" fill="none" xmlns="http://www.w3.org/2000/svg">
<g id="search">
<path id="Vector" d="M6.75 1.5C3.8505 1.5 1.5 3.8505 1.5 6.75C1.5 9.6495 3.8505 12 6.75 12C8.02 12 9.184 11.5495 10.092 10.799L13.6465 14.354C13.7403 14.4478 13.8675 14.5004 14.0002 14.5004C14.1328 14.5003 14.26 14.4476 14.3538 14.3538C14.4475 14.2599 14.5001 14.1327 14.5001 14.0001C14.5001 13.8674 14.4473 13.7403 14.3535 13.6465L10.799 10.0915C11.5768 9.15181 12.0016 7.96981 12 6.75C12 3.8505 9.6495 1.5 6.75 1.5ZM2.5 6.75C2.5 5.62283 2.94777 4.54183 3.7448 3.7448C4.54183 2.94777 5.62283 2.5 6.75 2.5C7.87717 2.5 8.95817 2.94777 9.7552 3.7448C10.5522 4.54183 11 5.62283 11 6.75C11 7.87717 10.5522 8.95817 9.7552 9.7552C8.95817 10.5522 7.87717 11 6.75 11C5.62283 11 4.54183 10.5522 3.7448 9.7552C2.94777 8.95817 2.5 7.87717 2.5 6.75Z" fill="#949BAD"/>
</g>
</svg>
