<svg width="7" height="14" viewBox="0 0 7 14" fill="none" xmlns="http://www.w3.org/2000/svg">
<path id="Vector" d="M0.188288 1.45442C0.128143 1.39078 0.0811226 1.3159 0.0499127 1.23409C0.0187023 1.15227 0.00391269 1.0651 0.0063889 0.977566C0.00886512 0.890032 0.0285585 0.803842 0.0643442 0.723918C0.10013 0.643994 0.151307 0.571901 0.214955 0.511756C0.278602 0.45161 0.353473 0.40459 0.435292 0.37338C0.517112 0.34217 0.604276 0.32738 0.691811 0.329857C0.779346 0.332333 0.865536 0.352026 0.94546 0.387812C1.02538 0.423598 1.09748 0.474775 1.15762 0.538423L6.82429 6.53842C6.94131 6.6622 7.00652 6.82608 7.00652 6.99642C7.00652 7.16676 6.94131 7.33064 6.82429 7.45442L1.15762 13.4551C1.09787 13.5201 1.0258 13.5727 0.945579 13.6096C0.865361 13.6466 0.778601 13.6672 0.690338 13.6703C0.602075 13.6735 0.514068 13.659 0.431431 13.6279C0.348793 13.5967 0.273171 13.5494 0.208957 13.4888C0.144743 13.4282 0.0932176 13.3554 0.0573733 13.2746C0.0215294 13.1939 0.00208115 13.1069 0.00015807 13.0186C-0.00176501 12.9303 0.0138757 12.8425 0.0461714 12.7603C0.0784676 12.6781 0.126775 12.6031 0.188288 12.5398L5.42296 6.99642L0.188288 1.45442Z" fill="#FCFCFF"/>
</svg>
