<svg width="40" height="40" viewBox="0 0 40 40" fill="none" xmlns="http://www.w3.org/2000/svg">
<path d="M40 20C40 31.0457 31.0457 40 20 40C8.9543 40 0 31.0457 0 20C0 8.9543 8.9543 0 20 0C31.0457 0 40 8.9543 40 20Z" fill="#17171B"/>
<g clip-path="url(#clip0_448_4985)">
<path d="M29.0534 26.1057C28.71 26.8918 28.3036 27.6154 27.8327 28.2807C27.1908 29.1876 26.6652 29.8154 26.2602 30.164C25.6323 30.7362 24.9596 31.0292 24.2392 31.0459C23.7221 31.0459 23.0984 30.9 22.3724 30.6042C21.644 30.3098 20.9747 30.164 20.3626 30.164C19.7207 30.164 19.0323 30.3098 18.296 30.6042C17.5585 30.9 16.9644 31.0542 16.5102 31.0695C15.8194 31.0986 15.1308 30.7973 14.4435 30.164C14.0048 29.7848 13.4561 29.1348 12.7988 28.214C12.0936 27.2307 11.5138 26.0905 11.0596 24.7905C10.5731 23.3864 10.3292 22.0267 10.3292 20.7104C10.3292 19.2025 10.658 17.902 11.3166 16.8121C11.8342 15.9367 12.5227 15.2462 13.3845 14.7393C14.2463 14.2324 15.1775 13.974 16.1802 13.9575C16.7289 13.9575 17.4485 14.1257 18.3426 14.4562C19.2343 14.7879 19.8068 14.9561 20.0578 14.9561C20.2455 14.9561 20.8815 14.7594 21.9597 14.3673C22.9792 14.0037 23.8398 13.8532 24.5447 13.9125C26.455 14.0653 27.8901 14.8115 28.8446 16.1559C27.1361 17.1817 26.291 18.6185 26.3078 20.4616C26.3233 21.8973 26.8488 23.0919 27.8817 24.0405C28.3498 24.4808 28.8726 24.8211 29.4542 25.0627C29.3281 25.4252 29.1949 25.7724 29.0534 26.1057V26.1057ZM24.6723 9.02154C24.6723 10.1468 24.2574 11.1974 23.4305 12.1699C22.4327 13.326 21.2257 13.994 19.9168 13.8886C19.9001 13.7536 19.8905 13.6115 19.8905 13.4622C19.8905 12.382 20.365 11.2259 21.2077 10.2807C21.6285 9.80207 22.1636 9.40412 22.8125 9.08668C23.46 8.77396 24.0724 8.60103 24.6484 8.57141C24.6653 8.72184 24.6723 8.87228 24.6723 9.02152V9.02154Z" fill="#FCFCFF"/>
</g>
<defs>
<clipPath id="clip0_448_4985">
<rect width="22.5" height="22.5" fill="white" transform="translate(8.57141 8.57141)"/>
</clipPath>
</defs>
</svg>
