<svg width="16" height="16" viewBox="0 0 16 16" fill="none" xmlns="http://www.w3.org/2000/svg">
<g id="arrow_down">
<path id="Vector" d="M2.12483 4.68853C2.06119 4.62839 1.98631 4.58137 1.9045 4.55016C1.82268 4.51895 1.73551 4.50416 1.64798 4.50663C1.56044 4.50911 1.47425 4.5288 1.39433 4.56459C1.3144 4.60037 1.24231 4.65155 1.18217 4.7152C1.12202 4.77885 1.075 4.85372 1.04379 4.93554C1.01258 5.01736 0.99779 5.10452 1.00027 5.19205C1.00274 5.27959 1.02244 5.36578 1.05822 5.4457C1.09401 5.52563 1.14519 5.59772 1.20883 5.65787L7.20883 11.3245C7.33261 11.4416 7.49649 11.5068 7.66683 11.5068C7.83717 11.5068 8.00105 11.4416 8.12483 11.3245L14.1255 5.65787C14.1905 5.59812 14.2431 5.52604 14.28 5.44582C14.317 5.3656 14.3376 5.27885 14.3407 5.19058C14.3439 5.10232 14.3294 5.01431 14.2983 4.93167C14.2671 4.84904 14.2198 4.77341 14.1592 4.7092C14.0986 4.64499 14.0258 4.59346 13.9451 4.55762C13.8643 4.52177 13.7773 4.50233 13.689 4.5004C13.6007 4.49848 13.5129 4.51412 13.4307 4.54642C13.3485 4.57871 13.2735 4.62702 13.2102 4.68853L7.66683 9.9232L2.12483 4.68853Z" fill="#949BAD"/>
</g>
</svg>
