<svg width="40" height="40" viewBox="0 0 40 40" fill="none" xmlns="http://www.w3.org/2000/svg">
<g id="Brands / Facebook Ads Symbol" clip-path="url(#clip0_448_4986)">
<path id="Vector" d="M40 20.1249C40.001 16.2776 38.9054 12.5106 36.8432 9.27059C34.7809 6.03054 31.8385 3.45324 28.3646 1.84417C24.8907 0.235103 21.0311 -0.338251 17.2432 0.192068C13.4553 0.722387 9.8979 2.33414 6.99277 4.83629C4.08764 7.33843 1.95656 10.626 0.852122 14.3094C-0.252316 17.9928 -0.283794 21.9176 0.761417 25.6184C1.80663 29.3192 3.8847 32.641 6.74932 35.19C9.61393 37.739 13.145 39.4083 16.9239 40V25.9417H11.8499V20.1249H16.9239V15.7011C16.9239 10.6499 19.8626 7.87442 24.4292 7.87442C25.9307 7.89561 27.4287 8.02711 28.9112 8.26788V13.2127H26.4376C26.0036 13.1537 25.5619 13.1948 25.146 13.3329C24.7301 13.471 24.351 13.7026 24.0372 14.01C23.7235 14.3174 23.4834 14.6926 23.3352 15.1072C23.187 15.5218 23.1346 15.9649 23.1818 16.403V20.1674H28.7209L27.8436 25.9843H23.129V40C27.8329 39.2505 32.1165 36.8369 35.2092 33.1935C38.3019 29.55 40.0007 24.916 40 20.1249Z" fill="#1977F3"/>
</g>
<defs>
<clipPath id="clip0_448_4986">
<rect width="40" height="40" fill="white"/>
</clipPath>
</defs>
</svg>
