<svg width="40" height="40" viewBox="0 0 40 40" fill="none" xmlns="http://www.w3.org/2000/svg">
<circle cx="20" cy="20" r="20" fill="#F3F5F8"/>
<g clip-path="url(#clip0_448_4984)">
<path fill-rule="evenodd" clip-rule="evenodd" d="M29.4363 20.7035C29.4363 19.9944 29.3727 19.3126 29.2545 18.6581H19.8363V22.5263H25.2181C24.9863 23.7763 24.2818 24.8354 23.2227 25.5444V28.0535H26.4545C28.3454 26.3126 29.4363 23.749 29.4363 20.7035Z" fill="#4285F4"/>
<path fill-rule="evenodd" clip-rule="evenodd" d="M19.8363 30.4762C22.5363 30.4762 24.7999 29.5808 26.4545 28.0535L23.2226 25.5444C22.3272 26.1444 21.1817 26.4989 19.8363 26.4989C17.2317 26.4989 15.0272 24.7399 14.2408 22.3762H10.8999V24.9671C12.5454 28.2353 15.9272 30.4762 19.8363 30.4762Z" fill="#34A853"/>
<path fill-rule="evenodd" clip-rule="evenodd" d="M14.2409 22.3763C14.0409 21.7763 13.9272 21.1354 13.9272 20.4763C13.9272 19.8172 14.0409 19.1763 14.2409 18.5763V15.9854H10.8999C10.2227 17.3354 9.8363 18.8626 9.8363 20.4763C9.8363 22.0899 10.2227 23.6172 10.8999 24.9672L14.2409 22.3763Z" fill="#FBBC05"/>
<path fill-rule="evenodd" clip-rule="evenodd" d="M19.8363 14.4535C21.3045 14.4535 22.6226 14.958 23.659 15.9489L26.5272 13.0807C24.7954 11.4671 22.5317 10.4762 19.8363 10.4762C15.9272 10.4762 12.5454 12.7171 10.8999 15.9853L14.2408 18.5762C15.0272 16.2126 17.2317 14.4535 19.8363 14.4535Z" fill="#EA4335"/>
</g>
<defs>
<clipPath id="clip0_448_4984">
<rect width="20" height="20" fill="white" transform="translate(9.5238 10.4762)"/>
</clipPath>
</defs>
</svg>
