<svg width="40" height="40" viewBox="0 0 40 40" fill="none" xmlns="http://www.w3.org/2000/svg">
<rect width="40" height="40" fill="#E5EAF2"/>
<path d="M-1152 -876C-1152 -887.201 -1152 -892.802 -1149.82 -897.08C-1147.9 -900.843 -1144.84 -903.903 -1141.08 -905.82C-1136.8 -908 -1131.2 -908 -1120 -908H1975C1986.2 -908 1991.8 -908 1996.08 -905.82C1999.84 -903.903 2002.9 -900.843 2004.82 -897.08C2007 -892.802 2007 -887.201 2007 -876V284C2007 295.201 2007 300.802 2004.82 305.08C2002.9 308.843 1999.84 311.903 1996.08 313.82C1991.8 316 1986.2 316 1975 316H-1120C-1131.2 316 -1136.8 316 -1141.08 313.82C-1144.84 311.903 -1147.9 308.843 -1149.82 305.08C-1152 300.802 -1152 295.201 -1152 284V-876Z" fill="#E5EEFF"/>
<path d="M-1141.08 313.82L-1140.17 312.038L-1141.08 313.82ZM-1149.82 305.08L-1151.6 305.988L-1149.82 305.08ZM2004.82 305.08L2003.04 304.172L2004.82 305.08ZM1996.08 313.82L1996.99 315.602L1996.08 313.82ZM1996.08 -905.82L1995.17 -904.038L1996.08 -905.82ZM2004.82 -897.08L2003.04 -896.172L2004.82 -897.08ZM-1141.08 -905.82L-1140.17 -904.038L-1141.08 -905.82ZM-1120 -906H1975V-910H-1120V-906ZM2005 -876V284H2009V-876H2005ZM1975 314H-1120V318H1975V314ZM-1150 284V-876H-1154V284H-1150ZM-1120 314C-1125.63 314 -1129.74 313.998 -1132.97 313.734C-1136.18 313.472 -1138.36 312.96 -1140.17 312.038L-1141.99 315.602C-1139.52 316.86 -1136.76 317.438 -1133.3 317.721C-1129.86 318.002 -1125.57 318 -1120 318V314ZM-1154 284C-1154 289.568 -1154 293.863 -1153.72 297.299C-1153.44 300.758 -1152.86 303.52 -1151.6 305.988L-1148.04 304.172C-1148.96 302.362 -1149.47 300.184 -1149.73 296.973C-1150 293.738 -1150 289.634 -1150 284H-1154ZM-1140.17 312.038C-1143.56 310.312 -1146.31 307.559 -1148.04 304.172L-1151.6 305.988C-1149.49 310.127 -1146.13 313.493 -1141.99 315.602L-1140.17 312.038ZM2005 284C2005 289.634 2005 293.738 2004.73 296.973C2004.47 300.184 2003.96 302.362 2003.04 304.172L2006.6 305.988C2007.86 303.52 2008.44 300.758 2008.72 297.299C2009 293.863 2009 289.568 2009 284H2005ZM1975 318C1980.57 318 1984.86 318.002 1988.3 317.721C1991.76 317.438 1994.52 316.86 1996.99 315.602L1995.17 312.038C1993.36 312.96 1991.18 313.472 1987.97 313.734C1984.74 313.998 1980.63 314 1975 314V318ZM2003.04 304.172C2001.31 307.559 1998.56 310.312 1995.17 312.038L1996.99 315.602C2001.13 313.493 2004.49 310.127 2006.6 305.988L2003.04 304.172ZM1975 -906C1980.63 -906 1984.74 -905.998 1987.97 -905.734C1991.18 -905.472 1993.36 -904.96 1995.17 -904.038L1996.99 -907.602C1994.52 -908.86 1991.76 -909.438 1988.3 -909.721C1984.86 -910.002 1980.57 -910 1975 -910V-906ZM2009 -876C2009 -881.568 2009 -885.863 2008.72 -889.299C2008.44 -892.758 2007.86 -895.52 2006.6 -897.988L2003.04 -896.172C2003.96 -894.362 2004.47 -892.184 2004.73 -888.973C2005 -885.738 2005 -881.634 2005 -876H2009ZM1995.17 -904.038C1998.56 -902.312 2001.31 -899.559 2003.04 -896.172L2006.6 -897.988C2004.49 -902.127 2001.13 -905.493 1996.99 -907.602L1995.17 -904.038ZM-1120 -910C-1125.57 -910 -1129.86 -910.002 -1133.3 -909.721C-1136.76 -909.438 -1139.52 -908.86 -1141.99 -907.602L-1140.17 -904.038C-1138.36 -904.96 -1136.18 -905.472 -1132.97 -905.734C-1129.74 -905.998 -1125.63 -906 -1120 -906V-910ZM-1150 -876C-1150 -881.634 -1150 -885.738 -1149.73 -888.973C-1149.47 -892.184 -1148.96 -894.362 -1148.04 -896.172L-1151.6 -897.988C-1152.86 -895.52 -1153.44 -892.758 -1153.72 -889.299C-1154 -885.863 -1154 -881.568 -1154 -876H-1150ZM-1141.99 -907.602C-1146.13 -905.493 -1149.49 -902.127 -1151.6 -897.988L-1148.04 -896.172C-1146.31 -899.559 -1143.56 -902.312 -1140.17 -904.038L-1141.99 -907.602Z" fill="#949BAD"/>
<g clip-path="url(#clip0_448_4026)">
<rect width="1440" height="1024" transform="translate(-1052 -808)" fill="#FCFCFF"/>
<g clip-path="url(#clip1_448_4026)">
<path d="M20.0001 39.6079C30.8291 39.6079 39.6079 30.8291 39.6079 20.0001C39.6079 9.17104 30.8291 0.392212 20.0001 0.392212C9.17104 0.392212 0.392212 9.17104 0.392212 20.0001C0.392212 30.8291 9.17104 39.6079 20.0001 39.6079Z" fill="#03CF5D"/>
<path fill-rule="evenodd" clip-rule="evenodd" d="M22.6697 12.5027V20.5278L17.1105 12.5027H12.5027V27.498H17.3301V19.4721L22.8886 27.4972H27.4972V12.502H22.6697V12.5027Z" fill="#FCFCFF"/>
</g>
</g>
<defs>
<clipPath id="clip0_448_4026">
<rect width="1440" height="1024" fill="white" transform="translate(-1052 -808)"/>
</clipPath>
<clipPath id="clip1_448_4026">
<rect width="40" height="40" fill="white"/>
</clipPath>
</defs>
</svg>
