<svg width="16" height="16" viewBox="0 0 16 16" fill="none" xmlns="http://www.w3.org/2000/svg">
<g id="arrow_right">
<path id="Vector" d="M4.18829 2.45076C4.12814 2.38711 4.08112 2.31224 4.04991 2.23042C4.0187 2.1486 4.00391 2.06144 4.00639 1.9739C4.00887 1.88637 4.02856 1.80018 4.06434 1.72026C4.10013 1.64033 4.15131 1.56824 4.21495 1.50809C4.2786 1.44795 4.35347 1.40093 4.43529 1.36972C4.51711 1.33851 4.60428 1.32372 4.69181 1.32619C4.77935 1.32867 4.86554 1.34836 4.94546 1.38415C5.02538 1.41994 5.09748 1.47111 5.15762 1.53476L10.8243 7.53476C10.9413 7.65854 11.0065 7.82242 11.0065 7.99276C11.0065 8.1631 10.9413 8.32698 10.8243 8.45076L5.15762 14.4514C5.09787 14.5165 5.0258 14.569 4.94558 14.6059C4.86536 14.6429 4.7786 14.6635 4.69034 14.6667C4.60207 14.6698 4.51407 14.6554 4.43143 14.6242C4.34879 14.593 4.27317 14.5458 4.20896 14.4851C4.14474 14.4245 4.09322 14.3517 4.05737 14.271C4.02153 14.1903 4.00208 14.1032 4.00016 14.0149C3.99823 13.9266 4.01388 13.8388 4.04617 13.7566C4.07847 13.6744 4.12678 13.5995 4.18829 13.5361L9.42296 7.99276L4.18829 2.45076Z" fill="#FCFCFF"/>
</g>
</svg>
