<svg width="16" height="16" viewBox="0 0 16 16" fill="none" xmlns="http://www.w3.org/2000/svg">
<g id="arrow_update">
<path id="Vector" d="M3.00004 8C2.99976 6.95033 3.32984 5.9272 3.94349 5.07559C4.55715 4.22398 5.42325 3.5871 6.41906 3.2552C7.41488 2.9233 8.48989 2.91321 9.49176 3.22637C10.4936 3.53953 11.3715 4.16005 12.001 5H10.001C9.86844 5 9.74126 5.05268 9.64749 5.14645C9.55372 5.24021 9.50104 5.36739 9.50104 5.5C9.50104 5.63261 9.55372 5.75979 9.64749 5.85355C9.74126 5.94732 9.86844 6 10.001 6H13C13.1327 6 13.2598 5.94732 13.3536 5.85355C13.4474 5.75979 13.5 5.63261 13.5 5.5V2.5C13.5 2.36739 13.4474 2.24021 13.3536 2.14645C13.2598 2.05268 13.1327 2 13 2C12.8674 2 12.7403 2.05268 12.6465 2.14645C12.5527 2.24021 12.5 2.36739 12.5 2.5V4.031C11.5865 2.99551 10.3438 2.30681 8.98148 2.08109C7.61919 1.85538 6.22074 2.10646 5.02206 2.79198C3.82338 3.4775 2.89783 4.5555 2.40158 5.84411C1.90532 7.13271 1.86873 8.55306 2.29797 9.86551C2.72722 11.178 3.59602 12.3022 4.75782 13.0485C5.91961 13.7949 7.30328 14.1176 8.67538 13.9623C10.0475 13.8071 11.324 13.1833 12.2897 12.1962C13.2553 11.2091 13.8509 9.91918 13.976 8.544C13.9819 8.47854 13.9748 8.41256 13.9551 8.34984C13.9355 8.28713 13.9037 8.2289 13.8615 8.17847C13.7764 8.07664 13.6543 8.0128 13.522 8.001C13.3898 7.9892 13.2584 8.0304 13.1565 8.11554C13.0547 8.20068 12.9908 8.32279 12.979 8.455C12.8613 9.73577 12.2545 10.9219 11.2848 11.7669C10.3151 12.6118 9.05714 13.0506 7.7723 12.992C6.48746 12.9335 5.27461 12.382 4.38584 11.4523C3.49708 10.5226 3.00076 9.28618 3.00004 8Z" fill="#949BAD"/>
</g>
</svg>
