<svg width="20" height="20" viewBox="0 0 20 20" fill="none" xmlns="http://www.w3.org/2000/svg">
<g id="arrow_update">
<path id="Vector" d="M3.74993 10C3.74958 8.68791 4.16218 7.40899 4.92924 6.34449C5.69631 5.27998 6.77894 4.48387 8.02371 4.069C9.26848 3.65412 10.6122 3.64151 11.8646 4.03296C13.1169 4.42442 14.2143 5.20007 15.0012 6.25H12.5012C12.3354 6.25 12.1765 6.31585 12.0592 6.43306C11.942 6.55027 11.8762 6.70924 11.8762 6.875C11.8762 7.04076 11.942 7.19973 12.0592 7.31694C12.1765 7.43415 12.3354 7.5 12.5012 7.5H16.2499C16.4157 7.5 16.5747 7.43415 16.6919 7.31694C16.8091 7.19973 16.8749 7.04076 16.8749 6.875V3.125C16.8749 2.95924 16.8091 2.80027 16.6919 2.68306C16.5747 2.56585 16.4157 2.5 16.2499 2.5C16.0842 2.5 15.9252 2.56585 15.808 2.68306C15.6908 2.80027 15.6249 2.95924 15.6249 3.125V5.03875C14.483 3.74439 12.9296 2.88351 11.2267 2.60137C9.52387 2.31922 7.77581 2.63307 6.27745 3.48998C4.7791 4.34688 3.62217 5.69437 3.00185 7.30513C2.38153 8.91589 2.33579 10.6913 2.87234 12.3319C3.4089 13.9724 4.49491 15.3777 5.94715 16.3106C7.39939 17.2436 9.12898 17.647 10.8441 17.4529C12.5592 17.2588 14.1549 16.4791 15.362 15.2453C16.569 14.0114 17.3135 12.399 17.4699 10.68C17.4772 10.5982 17.4684 10.5157 17.4438 10.4373C17.4192 10.3589 17.3795 10.2861 17.3268 10.2231C17.2203 10.0958 17.0677 10.016 16.9024 10.0013C16.7372 9.9865 16.5728 10.038 16.4455 10.1444C16.3182 10.2509 16.2384 10.4035 16.2237 10.5688C16.0765 12.1697 15.318 13.6524 14.1059 14.7086C12.8938 15.7648 11.3213 16.3133 9.71525 16.2401C8.1092 16.1668 6.59314 15.4775 5.48218 14.3154C4.37122 13.1533 3.75082 11.6077 3.74993 10Z" fill="#1A1A23"/>
</g>
</svg>
