<svg width="16" height="20" viewBox="0 0 16 12" fill="none" xmlns="http://www.w3.org/2000/svg">
<path id="Vector" d="M15.5574 0.357279C15.7278 0.538308 15.8193 0.779588 15.8118 1.02806C15.8043 1.27653 15.6984 1.51186 15.5174 1.68228L5.60495 11.0248C5.40288 11.2151 5.13437 11.3187 4.85685 11.3136C4.57933 11.3085 4.31483 11.1949 4.11995 10.9973L0.769951 7.59728C0.68124 7.51012 0.610757 7.40617 0.562609 7.2915C0.514462 7.17684 0.48961 7.05373 0.489502 6.92937C0.489395 6.805 0.514033 6.68186 0.561982 6.5671C0.609932 6.45235 0.680234 6.34829 0.768794 6.26097C0.857354 6.17366 0.962402 6.10483 1.07782 6.05851C1.19324 6.01219 1.31672 5.9893 1.44107 5.99116C1.56543 5.99303 1.68816 6.01962 1.80214 6.06938C1.91612 6.11915 2.01905 6.19109 2.10495 6.28103L4.89745 9.11478L14.2324 0.317279C14.4135 0.146916 14.6548 0.0554263 14.9032 0.0629274C15.1517 0.0704285 15.387 0.176306 15.5574 0.357279Z" fill="#FCFCFF"/>
</svg>
