<svg width="16" height="16" viewBox="0 0 16 16" fill="none" xmlns="http://www.w3.org/2000/svg">
<g id="arrow_down">
<path id="Vector" d="M2.12483 4.68829C2.06119 4.62814 1.98631 4.58112 1.9045 4.54991C1.82268 4.5187 1.73551 4.50391 1.64798 4.50639C1.56044 4.50886 1.47425 4.52856 1.39433 4.56434C1.3144 4.60013 1.24231 4.65131 1.18217 4.71495C1.12202 4.7786 1.075 4.85347 1.04379 4.93529C1.01258 5.01711 0.99779 5.10428 1.00027 5.19181C1.00274 5.27935 1.02244 5.36554 1.05822 5.44546C1.09401 5.52538 1.14519 5.59748 1.20883 5.65762L7.20883 11.3243C7.33261 11.4413 7.49649 11.5065 7.66683 11.5065C7.83717 11.5065 8.00105 11.4413 8.12483 11.3243L14.1255 5.65762C14.1905 5.59787 14.2431 5.5258 14.28 5.44558C14.317 5.36536 14.3376 5.2786 14.3407 5.19034C14.3439 5.10207 14.3294 5.01407 14.2983 4.93143C14.2671 4.84879 14.2198 4.77317 14.1592 4.70896C14.0986 4.64474 14.0258 4.59322 13.9451 4.55737C13.8643 4.52153 13.7773 4.50208 13.689 4.50016C13.6007 4.49824 13.5129 4.51388 13.4307 4.54617C13.3485 4.57847 13.2735 4.62678 13.2102 4.68829L7.66683 9.92296L2.12483 4.68829Z" fill="#4F5462"/>
</g>
</svg>
