<svg width="12" height="12" viewBox="0 0 12 12" fill="none" xmlns="http://www.w3.org/2000/svg">
<g id="check">
<path id="Vector" d="M10.5344 2.61437C10.6366 2.72299 10.6915 2.86775 10.687 3.01684C10.6825 3.16592 10.619 3.30711 10.5104 3.40937L4.56292 9.01487C4.44168 9.12905 4.28057 9.19124 4.11406 9.18816C3.94755 9.18508 3.78885 9.11696 3.67192 8.99837L1.66192 6.95837C1.60869 6.90607 1.56641 6.8437 1.53752 6.7749C1.50863 6.7061 1.49372 6.63224 1.49365 6.55762C1.49359 6.483 1.50837 6.40911 1.53714 6.34026C1.56591 6.27141 1.60809 6.20897 1.66123 6.15658C1.71436 6.10419 1.77739 6.0629 1.84664 6.03511C1.91589 6.00731 1.98998 5.99358 2.06459 5.9947C2.13921 5.99582 2.21285 6.01177 2.28124 6.04163C2.34962 6.07149 2.41138 6.11466 2.46292 6.16862L4.13842 7.86887L9.73942 2.59037C9.84804 2.48815 9.99281 2.43326 10.1419 2.43776C10.291 2.44226 10.4322 2.50578 10.5344 2.61437Z" fill="#FCFCFF"/>
</g>
</svg>
