<svg width="8" height="8" viewBox="0 0 8 8" fill="none" xmlns="http://www.w3.org/2000/svg">
<g id="Group">
<path id="Vector" d="M4.7072 3.99999L7.85375 0.853789C8.04907 0.658469 8.04907 0.341795 7.85375 0.14649C7.65843 -0.04883 7.34175 -0.04883 7.14645 0.14649L4.00023 3.29302L0.854033 0.14649C0.658713 -0.04883 0.342039 -0.04883 0.146734 0.14649C-0.0485703 0.34181 -0.0485859 0.658485 0.146734 0.853789L3.29326 3.99999L0.146734 7.1462C-0.0485859 7.34152 -0.0485859 7.6582 0.146734 7.8535C0.342054 8.04881 0.658729 8.04882 0.854033 7.8535L4.00023 4.70696L7.14643 7.8535C7.34175 8.04882 7.65843 8.04882 7.85373 7.8535C8.04905 7.65818 8.04905 7.34151 7.85373 7.1462L4.7072 3.99999Z" fill="#0051FF"/>
</g>
</svg>
