<svg width="22" height="13" viewBox="0 0 22 13" fill="none" xmlns="http://www.w3.org/2000/svg">
<g id="Message Arrow">
<path id="Subtract" fill-rule="evenodd" clip-rule="evenodd" d="M19.9072 12.782C20.335 13 20.8414 13 21.8544 13H0.145996C1.15892 13 1.66539 13 2.09321 12.782C2.15543 12.7503 2.21595 12.7154 2.27451 12.6773C2.6772 12.4158 2.93043 11.9772 3.4369 11.1L7.70929 3.7L7.70929 3.7C9.08821 1.31165 9.77766 0.117476 10.7911 0.0109562C10.9301 -0.00365207 11.0703 -0.00365207 11.2092 0.0109562C12.2227 0.117476 12.9122 1.31165 14.2911 3.7L18.5635 11.1C19.0699 11.9772 19.3232 12.4158 19.7259 12.6773C19.7844 12.7154 19.8449 12.7503 19.9072 12.782Z" fill="#FCFCFF"/>
</g>
</svg>
