<svg width="20" height="20" viewBox="0 0 20 20" fill="none" xmlns="http://www.w3.org/2000/svg">
<g id="link">
<path id="Vector" d="M9.99997 4.34329C10.7379 3.60537 11.7349 3.18504 12.7784 3.17198C13.8219 3.15892 14.8291 3.55417 15.5853 4.27339C16.3414 4.99261 16.7865 5.97885 16.8256 7.02167C16.8648 8.06449 16.4948 9.08132 15.7947 9.85518L15.6568 10.0001L14.2426 11.4144C14.1082 11.5487 13.9278 11.627 13.7379 11.6334C13.548 11.6399 13.3627 11.574 13.2195 11.4491C13.0763 11.3242 12.9858 11.1496 12.9664 10.9606C12.9469 10.7716 13 10.5822 13.1148 10.4308L13.182 10.3537L14.5962 8.93948C15.0568 8.48106 15.3209 7.86127 15.3323 7.21148C15.3438 6.5617 15.1017 5.93299 14.6575 5.45861C14.2133 4.98424 13.6018 4.70149 12.9527 4.6703C12.3036 4.63911 11.6678 4.86192 11.1801 5.29152L11.0606 5.40395L9.64642 6.81816C9.51201 6.95249 9.33163 7.03078 9.14171 7.03724C8.9518 7.04369 8.76652 6.97781 8.6233 6.85291C8.48009 6.72802 8.38963 6.55341 8.37019 6.36439C8.35075 6.17536 8.40379 5.986 8.51859 5.83457L8.58576 5.7575L9.99997 4.34329ZM5.75733 8.58593C5.89174 8.4516 6.07213 8.3733 6.26204 8.36685C6.45196 8.3604 6.63724 8.42628 6.78045 8.55118C6.92366 8.67607 7.01413 8.85067 7.03357 9.0397C7.05301 9.22873 6.99997 9.41808 6.88517 9.56951L6.81799 9.64659L5.40378 11.0608C4.94312 11.5192 4.67909 12.139 4.66763 12.7888C4.65618 13.4386 4.8982 14.0673 5.34242 14.5417C5.78663 15.016 6.39811 15.2988 7.04725 15.33C7.69639 15.3612 8.33216 15.1384 8.81981 14.7088L8.93932 14.5963L10.3535 13.1821C10.4879 13.0478 10.6683 12.9695 10.8582 12.963C11.0481 12.9566 11.2334 13.0225 11.3766 13.1474C11.5199 13.2723 11.6103 13.4469 11.6298 13.6359C11.6492 13.8249 11.5962 14.0143 11.4814 14.1657L11.4142 14.2428L9.99997 15.657C9.26208 16.3949 8.26503 16.8152 7.22155 16.8283C6.17808 16.8414 5.17082 16.4461 4.41469 15.7269C3.65857 15.0077 3.21345 14.0214 3.17432 12.9786C3.13518 11.9358 3.50514 10.919 4.20524 10.1451L4.34312 10.0001L5.75733 8.58593ZM6.81799 12.1215L12.1213 6.81816C12.2557 6.68383 12.4361 6.60554 12.626 6.59908C12.8159 6.59263 13.0012 6.65851 13.1444 6.78341C13.2876 6.9083 13.3781 7.08291 13.3975 7.27193C13.417 7.46096 13.3639 7.65032 13.2491 7.80175L13.182 7.87882L7.87865 13.1821C7.74425 13.3164 7.56386 13.3947 7.37395 13.4012C7.18403 13.4076 6.99875 13.3418 6.85554 13.2169C6.71232 13.092 6.62186 12.9174 6.60242 12.7283C6.58298 12.5393 6.63602 12.35 6.75082 12.1985L6.81799 12.1215Z" fill="#0051FF"/>
</g>
</svg>
